<?xml version="1.0" standalone="no"?>
<!DOCTYPE svg PUBLIC "-//W3C//DTD SVG 20010904//EN"
 "http://www.w3.org/TR/2001/REC-SVG-20010904/DTD/svg10.dtd">
<svg version="1.0" xmlns="http://www.w3.org/2000/svg"
 width="2084.000000pt" height="1503.000000pt" viewBox="0 0 2084.000000 1503.000000"
 preserveAspectRatio="xMidYMid meet">

<g transform="translate(0.000000,1503.000000) scale(0.100000,-0.100000)"
fill="#000000" stroke="none">
<path d="M19177 13902 c-18 -19 -124 -238 -158 -326 -12 -28 -41 -83 -65 -122
-28 -45 -44 -82 -44 -102 l0 -32 -332 -2 -333 -3 329 -2 c210 -2 333 0 341 7
8 7 38 5 94 -7 45 -9 77 -19 70 -23 -8 -5 -3 -13 15 -25 16 -11 26 -26 26 -41
0 -17 8 -28 27 -35 35 -13 153 -110 201 -164 36 -41 73 -62 101 -56 8 1 10 -2
5 -10 -5 -8 -3 -10 6 -4 10 6 0 20 -36 54 -67 62 -254 191 -277 191 -17 0 -18
9 -14 158 4 162 26 311 67 458 27 95 17 131 -23 86z"/>
<path d="M9488 13313 c160 -2 424 -2 585 0 160 1 29 2 -293 2 -322 0 -453 -1
-292 -2z"/>
<path d="M9025 13299 c-92 -13 -237 -39 -375 -66 -69 -14 -164 -29 -212 -34
-48 -5 -158 -28 -245 -50 -87 -23 -187 -48 -223 -56 -148 -31 -589 -191 -805
-290 -276 -128 -645 -365 -855 -551 -153 -135 -368 -353 -481 -487 -145 -171
-391 -602 -470 -820 -10 -27 -32 -84 -49 -124 -17 -41 -38 -104 -47 -140 -9
-37 -38 -121 -65 -188 -44 -112 -59 -164 -40 -138 8 12 37 13 48 2 4 -4 22 4
40 18 40 31 54 32 28 4 -19 -22 -19 -22 3 -11 12 7 23 16 25 21 1 5 35 44 73
86 39 42 69 78 67 81 -1 3 4 12 13 20 8 9 13 20 10 25 -4 5 0 7 7 4 7 -3 62
45 128 112 63 64 93 97 65 73 -27 -24 -53 -49 -57 -54 -4 -6 -8 -8 -8 -4 0 12
-40 -25 -40 -37 0 -6 -16 -26 -35 -45 -35 -34 -50 -24 -18 12 14 16 14 18 1
13 -12 -5 -15 0 -12 20 4 38 10 41 27 9 14 -27 15 -27 25 -7 9 16 8 24 -2 32
-7 6 -16 25 -20 42 -3 16 -20 50 -37 75 -29 42 -31 50 -24 102 4 31 10 62 15
67 17 23 18 55 2 65 -10 5 -12 10 -4 10 6 0 12 9 12 20 0 20 94 208 114 225 6
6 29 44 50 85 51 98 135 224 187 280 23 25 62 70 88 100 211 251 280 322 331
344 15 6 41 22 60 36 49 37 149 143 144 152 -3 4 2 8 10 8 8 0 19 6 23 13 4 8
31 27 58 42 28 16 52 32 55 36 3 3 19 14 37 23 18 9 36 23 41 32 5 9 11 15 13
14 5 -2 60 22 74 33 6 4 21 16 34 27 14 12 35 23 48 26 13 4 23 11 23 16 0 13
26 38 40 38 6 0 8 4 5 10 -3 6 1 7 9 4 11 -4 16 0 16 12 0 14 3 15 12 6 15
-15 31 -16 22 0 -4 6 -3 8 4 4 13 -8 125 48 115 57 -3 4 4 7 16 7 12 0 24 7
27 15 4 8 12 15 20 15 20 0 104 47 96 54 -3 4 1 4 10 1 10 -4 39 5 68 19 28
14 58 26 66 26 9 0 12 5 9 10 -3 6 -5 10 -3 10 2 0 89 30 193 66 261 90 277
94 300 88 15 -4 16 -3 6 4 -17 12 226 73 314 79 99 6 223 34 253 57 8 5 44 10
80 10 38 0 56 3 42 6 -26 7 -29 6 100 26 28 4 32 3 20 -6 -12 -9 -8 -10 20 -6
19 3 62 8 95 11 33 4 69 10 80 15 11 5 34 12 50 15 27 7 28 8 10 15 -14 6 -15
9 -4 9 8 1 19 -3 25 -7 5 -5 20 -6 34 -1 14 4 18 8 10 9 -8 1 10 8 40 15 63
15 34 17 -55 4z m-82 -36 c-7 -2 -19 -2 -25 0 -7 3 -2 5 12 5 14 0 19 -2 13
-5z m-56 -9 c-3 -3 -12 -4 -19 -1 -8 3 -5 6 6 6 11 1 17 -2 13 -5z m-104 -21
c-7 -2 -19 -2 -25 0 -7 3 -2 5 12 5 14 0 19 -2 13 -5z m-426 -69 c-3 -3 -12
-4 -19 -1 -8 3 -5 6 6 6 11 1 17 -2 13 -5z m-80 -20 c-3 -3 -12 -4 -19 -1 -8
3 -5 6 6 6 11 1 17 -2 13 -5z m-40 -10 c-3 -3 -12 -4 -19 -1 -8 3 -5 6 6 6 11
1 17 -2 13 -5z"/>
<path d="M18045 13284 c-66 -14 -176 -36 -245 -50 -69 -14 -162 -30 -207 -35
-78 -8 -310 -57 -473 -99 -65 -17 -68 -19 -25 -14 28 3 97 17 154 30 57 13
106 23 108 20 2 -2 -17 -9 -43 -15 -25 -7 -44 -14 -42 -16 4 -5 123 13 148 23
8 3 23 4 33 3 9 -1 17 3 17 8 0 6 12 11 27 11 32 0 93 21 93 32 0 4 12 8 28 8
15 0 73 9 130 20 57 10 118 17 135 14 21 -4 27 -2 19 3 -8 6 9 10 50 11 35 1
77 6 93 11 27 10 26 10 -15 6 -45 -4 -45 -4 10 10 30 8 66 11 80 8 14 -3 21
-2 17 3 -5 5 10 14 35 20 77 21 -1 13 -127 -12z m-638 -140 c-3 -3 -12 -4 -19
-1 -8 3 -5 6 6 6 11 1 17 -2 13 -5z"/>
<path d="M10528 13283 c6 -2 18 -2 25 0 6 3 1 5 -13 5 -14 0 -19 -2 -12 -5z"/>
<path d="M10635 13265 c33 -8 85 -14 115 -13 l55 1 -65 7 c-36 4 -87 10 -115
13 -49 6 -49 6 10 -8z"/>
<path d="M10858 13244 c12 -3 20 -9 17 -13 -7 -12 52 -22 82 -14 19 4 24 3 18
-6 -5 -10 4 -11 41 -6 27 4 44 3 37 -2 -6 -5 11 -9 40 -9 44 -2 48 0 27 8 -34
14 -163 37 -230 43 -30 2 -45 2 -32 -1z"/>
<path d="M11400 13174 c45 -14 81 -21 110 -23 12 -1 12 -3 2 -9 -8 -6 16 -15
65 -25 43 -9 107 -22 143 -30 45 -10 92 -12 155 -7 78 6 82 7 30 8 -33 1 -76
7 -95 12 -41 12 -430 90 -445 89 -5 0 10 -7 35 -15z"/>
<path d="M16745 13045 c-225 -44 -347 -73 -310 -74 17 0 59 6 95 14 71 16 110
18 70 5 -25 -9 129 -4 180 5 14 2 47 9 75 14 27 4 51 13 53 19 2 6 19 14 38
18 18 3 32 10 29 14 -3 5 3 11 12 13 10 3 -2 5 -27 5 -25 0 -121 -15 -215 -33z"/>
<path d="M12100 13066 c0 -3 27 -10 60 -17 33 -6 58 -15 55 -19 -2 -4 20 -8
51 -8 30 0 65 -7 77 -15 34 -21 114 -38 155 -32 28 4 32 3 17 -4 -15 -7 -8 -9
28 -6 26 1 50 5 52 7 6 5 -244 58 -274 58 -13 0 -49 6 -80 14 -73 18 -141 29
-141 22z"/>
<path d="M18445 12983 c-76 -21 -158 -45 -180 -54 -11 -4 -30 -11 -43 -14 -12
-4 -20 -10 -17 -15 3 -5 -3 -11 -12 -13 -10 -3 3 -5 28 -6 58 -1 190 36 289
82 l75 35 -45 -1 c-25 0 -67 -7 -95 -14z"/>
<path d="M19060 12989 c-25 -4 -104 -8 -176 -8 -105 -1 -134 -4 -144 -16 -12
-14 -16 -13 -39 7 l-26 23 22 -25 21 -25 -37 -75 c-21 -41 -77 -139 -124 -218
-48 -79 -117 -205 -153 -279 -73 -152 -134 -252 -203 -333 -26 -30 -61 -84
-77 -120 -37 -79 -215 -342 -319 -471 -42 -52 -120 -153 -174 -224 -186 -249
-300 -375 -775 -853 -495 -499 -722 -707 -966 -889 -52 -39 -142 -109 -199
-157 -58 -47 -155 -121 -215 -163 -61 -42 -169 -120 -241 -173 -650 -481
-1791 -1138 -2625 -1510 -548 -244 -667 -295 -940 -396 -96 -36 -209 -78 -250
-94 -136 -51 -442 -157 -605 -208 -437 -138 -524 -163 -1040 -296 -159 -41
-306 -80 -325 -86 -19 -5 -64 -15 -100 -20 -36 -6 -175 -35 -310 -65 -298 -66
-744 -151 -860 -164 -114 -13 -446 -66 -599 -96 -75 -15 -160 -25 -212 -25
-48 0 -123 -5 -166 -10 -422 -55 -547 -72 -616 -86 -49 -10 -150 -14 -350 -14
-308 0 -508 -17 -535 -44 -11 -11 -13 -19 -6 -26 5 -5 75 -17 154 -26 80 -8
199 -26 265 -40 66 -13 161 -29 210 -34 50 -6 135 -17 190 -25 55 -8 163 -19
240 -25 77 -6 227 -22 334 -36 106 -13 226 -24 267 -24 40 0 149 -7 241 -16
287 -28 824 -7 1298 51 66 8 172 19 235 25 124 11 291 37 490 75 69 14 174 32
235 41 60 8 177 33 260 54 82 21 179 44 215 50 94 16 495 123 705 187 580 177
969 317 1550 556 336 138 429 180 735 327 545 263 923 463 1271 672 123 74
251 150 284 168 239 134 910 582 1170 780 55 42 159 119 230 170 72 51 191
143 265 205 74 61 200 164 280 227 80 64 219 182 310 264 195 175 954 932
1056 1054 75 88 220 314 282 435 31 62 64 144 182 455 17 47 54 141 80 210 27
69 51 143 55 163 4 20 16 48 26 61 11 13 16 31 13 39 -9 25 24 182 61 282 45
125 50 134 75 128 11 -3 17 -9 14 -14 -3 -5 1 -6 9 -3 8 3 18 0 23 -7 5 -8 3
-10 -7 -4 -26 15 -5 -2 116 -93 148 -112 204 -164 241 -222 16 -25 31 -47 34
-50 7 -6 12 -28 17 -66 3 -20 -1 -35 -11 -43 -20 -17 -98 -33 -89 -19 3 6 -3
7 -17 3 -17 -5 -21 -4 -15 5 5 9 4 11 -4 6 -6 -4 -48 6 -92 23 -44 17 -84 31
-87 31 -23 -2 102 -55 212 -91 126 -41 303 -134 364 -191 l23 -23 -15 29 c-8
16 -13 33 -10 37 7 12 53 -8 94 -39 34 -26 33 -25 -11 28 -25 30 -66 84 -91
120 -150 213 -423 457 -635 567 -87 45 -88 47 -43 202 17 57 34 140 39 185 13
111 57 285 77 307 10 11 15 18 13 18 -2 -1 -24 -5 -49 -10z"/>
<path d="M16515 12970 c-27 -7 -28 -8 -5 -8 14 0 34 3 45 8 25 11 2 11 -40 0z"/>
<path d="M16075 12949 c-66 -10 -158 -23 -205 -29 -47 -5 -134 -20 -195 -32
-109 -22 -116 -23 -1137 -25 l-1027 -3 -127 25 c-69 14 -140 24 -157 24 -28
-2 -29 -2 -7 -6 14 -3 28 -10 31 -15 21 -34 131 -37 1226 -38 595 0 1090 -3
1100 -6 15 -5 16 -4 3 5 -12 9 -1 11 45 7 38 -3 49 -2 30 3 -19 4 20 7 100 7
129 0 241 10 260 24 10 7 68 24 120 36 20 4 25 8 15 12 -8 3 9 11 40 18 85 18
19 14 -115 -7z m-28 -25 c-3 -3 -12 -4 -19 -1 -8 3 -5 6 6 6 11 1 17 -2 13 -5z
m-304 -51 c-7 -2 -21 -2 -30 0 -10 3 -4 5 12 5 17 0 24 -2 18 -5z"/>
<path d="M12938 12953 c7 -3 16 -2 19 1 4 3 -2 6 -13 5 -11 0 -14 -3 -6 -6z"/>
<path d="M12978 12943 c6 -2 18 -2 25 0 6 3 1 5 -13 5 -14 0 -19 -2 -12 -5z"/>
<path d="M13039 12929 c14 -5 52 -12 85 -14 l61 -5 -65 15 c-79 17 -118 19
-81 4z"/>
<path d="M17965 12890 c-37 -17 -290 -69 -390 -81 -55 -6 -103 -16 -106 -21
-4 -6 -22 -10 -40 -11 -19 -1 -37 -6 -40 -10 -3 -5 -24 -10 -45 -12 -21 -1
-46 -6 -55 -9 -9 -4 -20 -6 -25 -5 -5 1 -20 0 -34 -4 -14 -3 -79 -16 -145 -27
-66 -12 -130 -28 -143 -36 -13 -9 -32 -12 -44 -8 -13 4 -18 2 -14 -4 5 -9 -48
-25 -89 -27 -5 0 -16 -4 -22 -8 -7 -5 -18 -5 -23 -2 -6 4 -17 2 -23 -4 -7 -5
-22 -10 -32 -9 -11 0 -31 -2 -45 -5 -14 -3 -60 -13 -104 -21 -43 -9 -84 -21
-92 -27 -8 -6 -20 -9 -28 -6 -7 3 -23 -1 -35 -9 -11 -8 -36 -16 -54 -17 -17
-2 -37 -6 -43 -9 -6 -4 -35 -11 -65 -17 -91 -15 -174 -34 -179 -40 -3 -3 -9
-6 -15 -6 -18 -1 -188 -42 -276 -67 -20 -6 -41 -8 -46 -5 -5 3 -29 1 -54 -5
-24 -5 -82 -18 -129 -28 -47 -9 -148 -34 -224 -54 -77 -20 -149 -34 -160 -30
-15 4 -17 3 -7 -4 10 -8 6 -12 -18 -17 -18 -4 -35 -4 -38 -1 -4 3 2 6 12 6 10
0 16 3 12 6 -8 8 -48 -6 -43 -15 3 -4 -21 -8 -53 -8 -59 0 -121 -18 -121 -34
0 -11 -3 -11 105 5 91 15 189 37 325 74 41 11 104 23 140 27 99 10 172 24 330
66 80 21 192 45 250 54 58 8 166 33 240 56 74 22 176 47 225 55 87 14 141 27
325 79 47 13 122 29 168 35 46 6 145 27 220 47 163 42 214 53 392 88 74 15
187 40 250 56 63 16 142 30 175 31 50 1 53 2 18 5 -24 2 -43 8 -43 14 0 11
-18 11 -45 -1z m-2942 -667 c-7 -2 -19 -2 -25 0 -7 3 -2 5 12 5 14 0 19 -2 13
-5z m-50 -10 c-7 -2 -19 -2 -25 0 -7 3 -2 5 12 5 14 0 19 -2 13 -5z"/>
<path d="M17930 12395 c99 -15 312 -19 326 -6 5 5 20 11 34 14 14 2 -81 4
-210 4 -229 1 -233 0 -150 -12z"/>
<path d="M17720 12393 c-169 -27 -524 -109 -489 -112 3 -1 47 8 99 19 51 11
96 18 98 15 3 -3 -3 -5 -14 -6 -15 -1 -13 -3 6 -8 14 -5 33 -4 43 1 10 5 44
10 75 11 31 1 59 5 62 8 3 3 38 15 78 28 39 12 72 26 72 31 0 5 10 11 23 13
20 4 20 4 -3 4 -14 0 -36 -2 -50 -4z m-243 -69 c-3 -3 -12 -4 -19 -1 -8 3 -5
6 6 6 11 1 17 -2 13 -5z"/>
<path d="M17035 12271 c-55 -10 -167 -34 -250 -54 -82 -20 -172 -39 -200 -42
-54 -7 -344 -78 -391 -96 -16 -6 -67 -15 -114 -20 -47 -5 -174 -32 -283 -59
-109 -28 -213 -50 -230 -50 -18 0 -113 -21 -212 -46 -99 -26 -205 -52 -235
-59 -44 -10 -50 -13 -30 -17 14 -3 -4 -3 -40 -1 -51 4 -97 -3 -210 -30 -80
-19 -188 -44 -240 -56 -137 -29 -141 -31 -75 -26 42 3 54 2 40 -5 -14 -6 -7
-7 25 -3 54 7 64 13 24 14 -19 1 -9 6 31 15 76 17 88 17 50 -1 -44 -20 -23
-18 105 10 63 14 126 27 140 29 14 2 47 10 73 19 26 10 67 17 90 18 45 0 101
17 63 18 -45 2 -2 14 61 17 37 1 77 5 88 8 91 21 125 28 158 31 21 2 44 8 50
13 7 5 30 13 52 17 33 6 37 9 20 15 -19 8 -19 9 3 9 12 1 22 -3 22 -7 0 -8
114 12 219 38 24 6 51 10 60 9 9 -1 23 1 31 4 8 3 35 10 60 16 76 17 173 42
205 51 29 9 29 9 -5 5 -32 -5 -33 -4 -10 6 14 5 33 8 42 5 10 -2 16 0 12 5 -3
5 1 9 8 9 7 0 24 3 38 6 22 4 22 3 -5 -11 -16 -8 -23 -14 -15 -11 8 2 49 9 90
16 41 7 80 17 85 21 6 4 33 10 60 14 28 4 55 11 60 15 6 4 28 11 49 14 29 6
36 10 25 17 -11 7 -9 9 9 9 13 0 21 -4 18 -8 -3 -5 9 -6 27 -4 26 4 28 6 12
12 -16 6 -14 8 12 13 80 16 87 16 48 2 l-40 -14 50 5 c28 3 68 11 90 19 22 7
62 16 89 20 27 4 58 10 70 15 11 4 46 13 76 20 30 7 60 16 65 20 6 4 19 10 30
13 52 13 -61 3 -150 -12z m-78 -37 c-3 -3 -12 -4 -19 -1 -8 3 -5 6 6 6 11 1
17 -2 13 -5z m-102 -24 c-11 -5 -27 -9 -35 -9 -9 0 -8 4 5 9 11 5 27 9 35 9 9
0 8 -4 -5 -9z m-408 -86 c-3 -3 -12 -4 -19 -1 -8 3 -5 6 6 6 11 1 17 -2 13 -5z
m-70 -20 c-3 -3 -12 -4 -19 -1 -8 3 -5 6 6 6 11 1 17 -2 13 -5z m-550 -120
c-3 -3 -12 -4 -19 -1 -8 3 -5 6 6 6 11 1 17 -2 13 -5z m-92 -24 c-11 -5 -29
-8 -40 -8 -16 0 -15 2 5 8 34 11 60 11 35 0z m-78 -16 c-3 -3 -12 -4 -19 -1
-8 3 -5 6 6 6 11 1 17 -2 13 -5z m-250 -50 c-3 -3 -12 -4 -19 -1 -8 3 -5 6 6
6 11 1 17 -2 13 -5z m-40 -10 c-3 -3 -12 -4 -19 -1 -8 3 -5 6 6 6 11 1 17 -2
13 -5z m-87 -24 c-8 -5 -24 -9 -35 -9 l-20 0 20 9 c11 5 27 9 35 9 13 1 13 0
0 -9z m-233 -46 c-3 -3 -12 -4 -19 -1 -8 3 -5 6 6 6 11 1 17 -2 13 -5z m-240
-50 c-3 -3 -12 -4 -19 -1 -8 3 -5 6 6 6 11 1 17 -2 13 -5z m-40 -10 c-3 -3
-12 -4 -19 -1 -8 3 -5 6 6 6 11 1 17 -2 13 -5z"/>
<path d="M8965 12169 c-93 -16 -210 -36 -260 -44 -49 -9 -110 -14 -135 -10
-35 4 -40 3 -25 -5 15 -8 6 -9 -35 -5 -39 4 -51 2 -40 -5 11 -7 0 -10 -40 -10
-30 0 -100 -12 -155 -26 -133 -35 -203 -51 -303 -69 -102 -19 -370 -103 -608
-190 -98 -37 -198 -73 -222 -82 -23 -8 -156 -71 -295 -140 -138 -69 -258 -126
-264 -126 -7 0 -13 -5 -13 -10 0 -5 -7 -7 -15 -3 -10 3 -15 -1 -16 -12 0 -9
-3 -12 -5 -5 -7 17 -54 -5 -54 -26 0 -14 -2 -14 -10 -1 -9 14 -14 7 -11 -13 1
-5 -3 -6 -9 -2 -14 9 -52 -14 -44 -27 4 -7 3 -8 -4 -4 -20 12 -190 -92 -254
-156 -21 -21 -42 -38 -47 -38 -5 0 -11 -4 -13 -9 -1 -5 -43 -40 -93 -79 -49
-38 -99 -80 -110 -93 -11 -13 7 -1 40 27 242 201 612 417 1088 634 282 128
789 301 1007 343 74 14 182 40 240 56 58 17 152 35 210 41 109 11 265 33 530
78 85 14 178 29 205 32 l50 7 -60 1 c-33 0 -136 -13 -230 -29z"/>
<path d="M14565 12179 c-55 -11 -113 -17 -130 -14 -19 3 -25 2 -16 -4 9 -6
-12 -11 -60 -16 -41 -3 -112 -13 -159 -20 -47 -7 -110 -17 -140 -21 -30 -4
-50 -9 -43 -11 6 -2 76 5 155 16 79 11 172 23 208 26 36 4 119 16 185 27 66
11 152 24 190 28 l70 7 -80 1 c-44 0 -125 -9 -180 -19z"/>
<path d="M10788 12183 c6 -2 18 -2 25 0 6 3 1 5 -13 5 -14 0 -19 -2 -12 -5z"/>
<path d="M10865 12170 c22 -5 94 -11 160 -14 l120 -5 -135 14 c-151 15 -206
17 -145 5z"/>
<path d="M11188 12143 c12 -2 32 -2 45 0 12 2 2 4 -23 4 -25 0 -35 -2 -22 -4z"/>
<path d="M11518 12123 c12 -2 32 -2 45 0 12 2 2 4 -23 4 -25 0 -35 -2 -22 -4z"/>
<path d="M11603 12113 c9 -2 25 -2 35 0 9 3 1 5 -18 5 -19 0 -27 -2 -17 -5z"/>
<path d="M18125 12034 c-58 -16 -68 -17 -61 -6 2 4 -25 3 -62 -2 -57 -9 -63
-11 -37 -17 l30 -7 -32 -1 c-18 0 -33 3 -33 8 0 5 -10 7 -22 3 -21 -5 -21 -6
-2 -14 13 -5 6 -7 -21 -3 -29 3 -34 2 -20 -5 16 -7 13 -9 -20 -10 -22 -1 -34
-4 -26 -7 33 -13 327 43 356 69 11 10 13 10 -50 -8z m-82 -21 c-7 -2 -19 -2
-25 0 -7 3 -2 5 12 5 14 0 19 -2 13 -5z"/>
<path d="M17446 11978 c5 -8 0 -9 -16 -5 -13 3 -29 2 -36 -4 -7 -5 -29 -12
-50 -14 -22 -2 -39 -4 -39 -5 0 -2 -36 -6 -165 -18 -58 -6 -125 -17 -150 -25
-25 -8 -62 -18 -82 -21 -21 -4 -38 -11 -38 -16 0 -6 -5 -10 -11 -10 -5 0 -8 4
-5 8 3 5 -28 0 -67 -10 -40 -10 -106 -21 -147 -25 -41 -3 -80 -9 -85 -14 -6
-4 -20 -8 -30 -8 -38 1 -105 -14 -105 -22 0 -5 -8 -9 -17 -9 -10 0 -27 -7 -37
-15 -10 -8 -23 -12 -28 -9 -11 7 -69 -6 -64 -14 2 -4 -25 -8 -60 -9 -97 -4
-238 -30 -290 -52 -25 -12 -76 -26 -113 -32 -36 -6 -70 -15 -76 -19 -9 -7 -46
-13 -145 -26 -19 -3 -46 -7 -60 -11 -14 -3 -37 -5 -52 -4 -16 1 -28 -2 -28 -8
0 -6 -9 -11 -20 -11 -20 0 -28 -3 -87 -34 -18 -9 -33 -13 -33 -8 0 5 -15 4
-34 -2 -19 -6 -33 -13 -31 -17 3 -3 -17 -7 -43 -8 -79 -4 -92 -6 -92 -11 0 -3
-23 -6 -52 -7 -51 -1 -116 -16 -150 -34 -10 -5 -24 -9 -32 -9 -8 0 -22 -7 -31
-16 -8 -9 -22 -13 -30 -10 -23 9 -80 -5 -63 -15 10 -7 8 -9 -7 -10 -44 -3 -83
-8 -145 -18 -36 -6 -82 -11 -102 -11 -37 0 -154 -33 -232 -65 -15 -7 -17 -5
-11 6 7 10 1 8 -18 -4 -15 -10 -32 -15 -37 -12 -6 3 -10 1 -10 -6 0 -7 -10 -9
-25 -7 -14 3 -28 2 -30 -2 -3 -4 -26 -11 -52 -15 -27 -3 -79 -12 -118 -20 -38
-7 -105 -19 -147 -25 -48 -8 -75 -17 -71 -23 4 -6 0 -8 -11 -4 -22 9 -68 -2
-60 -14 3 -5 -9 -9 -25 -9 -17 0 -93 -11 -169 -25 -141 -25 -178 -31 -269 -42
-29 -3 -53 -10 -53 -16 0 -5 -9 -7 -20 -4 -13 3 -18 1 -13 -6 4 -6 -2 -8 -17
-4 -13 3 -29 2 -36 -4 -7 -5 -27 -11 -45 -13 -35 -4 -40 -5 -98 -24 -19 -6
-38 -9 -42 -6 -4 2 -36 0 -71 -6 -35 -6 -107 -17 -161 -25 -54 -8 -107 -20
-118 -26 -12 -6 -30 -8 -41 -6 -11 3 -17 3 -14 0 10 -10 -129 -42 -156 -36
-19 4 -20 3 -8 -7 12 -10 11 -11 -8 -7 -12 3 -20 2 -17 -3 3 -4 -12 -7 -33 -7
-47 2 -266 -32 -270 -42 -1 -4 -19 -5 -38 -3 -20 3 -53 0 -73 -6 -90 -27 -220
-55 -266 -58 -27 -2 -61 -6 -75 -10 -14 -3 -63 -12 -110 -20 -94 -15 -227 -44
-338 -74 -40 -11 -77 -18 -82 -15 -5 3 -12 1 -15 -5 -4 -6 -21 -8 -42 -4 -20
4 -34 3 -30 -2 3 -5 -27 -10 -66 -11 -40 -1 -73 -6 -74 -10 -2 -5 -19 -7 -38
-5 -21 3 -35 0 -35 -7 0 -6 -10 -11 -22 -11 -11 0 -75 -13 -142 -30 -67 -16
-137 -31 -156 -34 -19 -2 -48 -9 -63 -15 -15 -6 -38 -10 -50 -9 -32 1 -184
-28 -320 -63 -122 -31 -164 -40 -207 -42 -14 -1 -27 -5 -30 -8 -3 -3 -41 -11
-86 -17 -44 -6 -127 -22 -185 -35 -137 -33 -205 -48 -254 -57 -49 -9 -310 -75
-384 -96 -30 -9 -64 -18 -75 -20 -29 -4 -157 -38 -241 -62 -38 -11 -122 -34
-185 -52 -63 -17 -194 -56 -290 -86 -96 -31 -204 -65 -240 -76 -219 -68 -584
-206 -778 -294 -135 -62 -361 -170 -400 -191 -23 -13 -48 -21 -54 -17 -6 4 -8
3 -5 -3 7 -11 -111 -76 -124 -67 -5 3 -9 0 -9 -6 0 -6 -5 -8 -10 -5 -6 4 -9 1
-8 -7 2 -8 -6 -13 -19 -13 -11 0 -25 -4 -29 -8 -5 -4 0 -5 11 -1 11 4 16 3 12
-1 -4 -5 -20 -9 -35 -10 -15 0 -27 -5 -27 -12 0 -6 -4 -15 -9 -20 -5 -5 -6 -3
-2 5 12 20 -7 14 -67 -24 -33 -20 -54 -40 -51 -46 4 -6 2 -8 -4 -5 -15 10 -42
-3 -42 -19 0 -7 -6 -11 -14 -8 -8 3 -30 -11 -52 -33 -21 -21 -34 -32 -30 -25
6 10 0 9 -20 -2 -52 -28 -69 -45 -57 -57 7 -7 28 2 69 31 33 23 58 45 57 50
-1 4 5 14 15 22 15 12 16 11 3 -4 -7 -10 -10 -18 -7 -18 4 0 91 49 194 109
302 175 320 184 792 396 150 68 506 199 720 267 36 11 133 42 215 68 83 27
197 60 255 75 58 14 164 43 235 64 72 21 177 49 235 61 58 12 154 37 215 55
60 18 171 44 245 58 74 14 178 39 230 55 52 16 149 37 215 46 66 9 203 37 305
61 102 24 235 51 295 60 61 9 178 33 260 55 83 21 210 45 283 54 134 16 256
40 388 76 39 10 131 26 205 35 145 18 276 43 409 80 47 13 128 27 180 30 127
9 243 29 402 70 73 19 192 41 263 49 120 14 196 29 440 85 50 11 159 29 243
41 84 11 215 36 290 55 75 19 198 43 272 54 74 11 191 36 258 56 68 20 176 43
240 51 126 17 240 41 367 79 44 13 105 26 135 30 110 12 223 37 330 70 61 19
154 41 207 50 98 16 304 65 354 84 15 5 80 17 145 26 121 17 273 52 353 80 25
8 110 27 190 41 81 13 205 40 276 60 72 19 182 41 245 49 121 14 293 51 401
85 42 13 97 20 159 22 90 2 91 2 22 5 -43 2 -70 8 -67 13 4 6 -8 10 -25 10
-21 0 -29 -4 -24 -12z m-5279 -1114 c-3 -3 -12 -4 -19 -1 -8 3 -5 6 6 6 11 1
17 -2 13 -5z m-1284 -231 c-7 -2 -19 -2 -25 0 -7 3 -2 5 12 5 14 0 19 -2 13
-5z"/>
<path d="M14370 11713 c-14 -3 -124 -27 -245 -53 -121 -27 -240 -51 -265 -53
l-45 -4 47 -1 c25 -1 82 5 125 13 84 16 124 18 83 5 -24 -8 29 -5 100 5 14 3
40 5 58 7 17 1 32 5 32 8 0 3 12 7 26 8 15 1 32 6 39 12 6 5 14 8 17 5 2 -3
29 4 59 14 30 11 47 20 39 21 -10 1 -9 4 5 10 16 7 13 8 -15 8 -19 0 -46 -3
-60 -5z m-113 -49 c-3 -3 -12 -4 -19 -1 -8 3 -5 6 6 6 11 1 17 -2 13 -5z"/>
<path d="M13550 11575 c-63 -13 -182 -36 -265 -51 -82 -15 -141 -30 -131 -32
10 -2 44 1 75 7 32 6 77 7 106 3 32 -5 68 -3 100 5 27 7 64 13 82 13 18 0 41
4 51 9 9 5 43 16 75 25 31 10 57 21 57 26 0 5 10 11 23 13 12 2 4 4 -18 4 -22
1 -92 -10 -155 -22z m17 -21 c-3 -3 -12 -4 -19 -1 -8 3 -5 6 6 6 11 1 17 -2
13 -5z m-50 -10 c-3 -3 -12 -4 -19 -1 -8 3 -5 6 6 6 11 1 17 -2 13 -5z m-174
-31 c-7 -2 -19 -2 -25 0 -7 3 -2 5 12 5 14 0 19 -2 13 -5z"/>
<path d="M12930 11485 c-8 -2 -91 -13 -185 -25 -93 -12 -228 -34 -300 -48 -71
-15 -186 -29 -255 -33 l-125 -6 152 1 c84 1 154 -1 155 -4 2 -3 17 -3 33 1
l30 7 -30 2 c-28 2 -27 3 10 11 50 10 92 10 50 -1 -46 -11 100 -11 155 1 25 5
61 10 80 12 20 2 40 6 45 9 6 3 44 14 84 24 41 10 68 20 60 23 -7 3 13 10 46
17 33 6 49 11 35 12 -14 0 -32 -2 -40 -3z"/>
<path d="M13228 11483 c6 -2 18 -2 25 0 6 3 1 5 -13 5 -14 0 -19 -2 -12 -5z"/>
<path d="M11820 11359 c-115 -21 -241 -39 -281 -39 -24 0 -100 -10 -169 -22
-88 -15 -192 -23 -350 -28 l-225 -7 250 3 c138 1 266 5 285 9 25 5 31 4 20 -4
-19 -13 205 -4 230 9 10 5 42 12 72 15 29 3 64 9 78 12 14 3 32 7 40 9 8 2 16
7 18 13 2 6 18 8 35 5 27 -4 29 -3 12 6 -18 9 -17 10 8 7 15 -3 27 -1 27 4 0
4 17 10 38 12 l37 4 -40 0 c-22 0 -60 -3 -85 -8z m-93 -35 c-3 -3 -12 -4 -19
-1 -8 3 -5 6 6 6 11 1 17 -2 13 -5z m-304 -41 c-7 -2 -19 -2 -25 0 -7 3 -2 5
12 5 14 0 19 -2 13 -5z"/>
<path d="M10628 11253 c6 -2 18 -2 25 0 6 3 1 5 -13 5 -14 0 -19 -2 -12 -5z"/>
<path d="M10450 11234 c-47 -8 -137 -18 -200 -23 -63 -6 -167 -20 -230 -32
-63 -12 -149 -25 -190 -29 -63 -6 -59 -7 25 -3 55 3 121 6 147 7 25 0 44 4 42
8 -3 4 16 5 41 2 25 -4 87 -1 138 7 80 12 88 15 57 21 -21 4 -7 5 35 3 86 -6
159 4 130 17 -16 7 -15 8 8 5 15 -3 27 -1 27 3 0 4 26 11 58 17 31 6 44 10 27
10 -16 1 -68 -5 -115 -13z m-73 -30 c-3 -3 -12 -4 -19 -1 -8 3 -5 6 6 6 11 1
17 -2 13 -5z m-260 -30 c-3 -3 -12 -4 -19 -1 -8 3 -5 6 6 6 11 1 17 -2 13 -5z"/>
<path d="M9508 11143 c7 -3 16 -2 19 1 4 3 -2 6 -13 5 -11 0 -14 -3 -6 -6z"/>
<path d="M9978 11143 c7 -3 16 -2 19 1 4 3 -2 6 -13 5 -11 0 -14 -3 -6 -6z"/>
<path d="M9350 11124 c-41 -7 -124 -20 -185 -29 -108 -15 -332 -62 -307 -64 7
-1 56 6 109 15 53 8 108 12 121 9 30 -7 170 12 242 33 30 9 58 15 63 14 4 -1
7 3 7 9 0 7 10 9 25 7 13 -3 22 -2 20 3 -3 4 7 10 22 12 24 3 22 4 -7 5 -19 0
-69 -6 -110 -14z m7 -20 c-3 -3 -12 -4 -19 -1 -8 3 -5 6 6 6 11 1 17 -2 13 -5z
m-44 -11 c-7 -2 -19 -2 -25 0 -7 3 -2 5 12 5 14 0 19 -2 13 -5z m-146 -19 c-3
-3 -12 -4 -19 -1 -8 3 -5 6 6 6 11 1 17 -2 13 -5z"/>
<path d="M9048 11043 c7 -3 16 -2 19 1 4 3 -2 6 -13 5 -11 0 -14 -3 -6 -6z"/>
<path d="M8570 11009 c-52 -11 -153 -32 -225 -49 -71 -16 -173 -36 -225 -45
-52 -9 -147 -29 -210 -46 -63 -17 -191 -50 -285 -74 -410 -105 -709 -218
-1090 -410 -476 -240 -822 -501 -1127 -850 -82 -93 -164 -192 -182 -220 -58
-88 -177 -305 -232 -426 -50 -110 -180 -477 -171 -485 2 -2 14 25 26 61 14 39
27 62 34 58 6 -4 8 2 5 15 -4 12 -3 20 1 17 5 -2 13 7 20 21 6 15 7 23 1 19
-5 -3 -10 -2 -10 3 0 6 7 12 15 16 8 3 15 11 15 18 0 9 -3 9 -11 -2 -9 -12
-10 -12 -5 3 3 10 6 24 6 30 0 7 5 6 11 -3 8 -12 10 -9 6 12 -2 15 0 26 5 25
5 -1 21 27 37 63 76 171 100 222 150 310 65 116 131 216 162 250 13 14 44 50
69 80 118 143 229 265 243 265 7 0 12 5 12 10 1 16 65 78 120 115 70 48 120
93 193 173 23 25 42 44 42 41 0 -2 12 7 28 21 15 14 35 28 45 31 11 3 27 13
37 22 37 34 49 42 62 42 8 0 21 8 30 18 24 26 61 52 74 52 7 0 14 7 18 15 3 8
13 15 21 15 9 0 14 4 11 9 -3 4 6 7 20 5 15 -1 28 4 31 12 3 8 16 14 29 14 14
0 27 6 30 14 3 8 19 18 36 21 16 4 27 9 24 12 -5 5 108 63 373 192 57 28 112
51 122 51 10 0 19 4 19 10 0 5 17 12 38 15 20 3 62 19 92 34 65 34 258 99 316
105 22 3 69 13 105 21 35 9 87 21 114 26 28 6 55 16 61 24 11 15 130 49 142
41 5 -3 73 9 153 26 227 47 239 50 234 58 -3 5 26 15 64 24 77 18 107 20 76 5
-14 -6 -8 -7 20 -3 22 4 49 8 60 9 11 1 27 4 35 7 8 3 50 11 93 18 74 11 164
37 142 40 -5 1 1 6 15 10 51 16 -74 8 -170 -11z m47 -15 c-3 -3 -12 -4 -19 -1
-8 3 -5 6 6 6 11 1 17 -2 13 -5z m-50 -10 c-3 -3 -12 -4 -19 -1 -8 3 -5 6 6 6
11 1 17 -2 13 -5z m-44 -11 c-7 -2 -19 -2 -25 0 -7 3 -2 5 12 5 14 0 19 -2 13
-5z m-46 -9 c-3 -3 -12 -4 -19 -1 -8 3 -5 6 6 6 11 1 17 -2 13 -5z m-44 -11
c-7 -2 -19 -2 -25 0 -7 3 -2 5 12 5 14 0 19 -2 13 -5z m-356 -69 c-3 -3 -12
-4 -19 -1 -8 3 -5 6 6 6 11 1 17 -2 13 -5z m-120 -30 c-3 -3 -12 -4 -19 -1 -8
3 -5 6 6 6 11 1 17 -2 13 -5z m-264 -71 c-7 -2 -19 -2 -25 0 -7 3 -2 5 12 5
14 0 19 -2 13 -5z m-56 -9 c-3 -3 -12 -4 -19 -1 -8 3 -5 6 6 6 11 1 17 -2 13
-5z m-1250 -500 c-3 -3 -12 -4 -19 -1 -8 3 -5 6 6 6 11 1 17 -2 13 -5z"/>
<path d="M18848 10993 c-17 -20 -65 -119 -135 -283 -92 -216 -381 -784 -431
-850 -27 -36 -132 -144 -233 -240 -101 -96 -278 -267 -394 -380 -235 -230
-350 -331 -540 -476 -71 -54 -177 -137 -235 -185 -104 -85 -181 -144 -460
-349 -715 -527 -1750 -1155 -2575 -1564 -846 -420 -1763 -782 -2590 -1024
-303 -89 -570 -162 -646 -177 -41 -8 -166 -37 -279 -64 -113 -28 -217 -51
-231 -51 -14 0 -146 -25 -294 -55 -191 -39 -289 -55 -346 -55 -44 0 -161 -13
-262 -29 -100 -17 -272 -39 -382 -51 -110 -12 -218 -25 -240 -30 -22 -5 -339
-10 -705 -10 -536 0 -684 3 -765 15 -143 21 -381 45 -442 45 -29 0 -131 14
-228 30 -119 20 -210 30 -283 30 -97 0 -186 11 -342 40 -51 10 -123 23 -275
50 -33 6 -109 13 -170 16 -79 5 -122 12 -152 26 -24 11 -48 18 -55 16 -23 -8
208 -115 287 -134 44 -10 153 -42 243 -71 90 -29 170 -53 179 -53 8 0 83 -21
166 -46 82 -25 193 -54 246 -64 53 -10 152 -34 221 -53 136 -39 265 -67 303
-67 13 0 69 -11 123 -24 166 -41 324 -73 419 -85 50 -6 149 -22 220 -36 72
-13 179 -34 238 -45 60 -11 157 -25 215 -31 59 -6 170 -21 247 -35 273 -47
532 -83 602 -84 28 0 111 -9 185 -20 73 -12 178 -27 233 -35 55 -8 138 -21
185 -29 47 -9 148 -21 225 -26 135 -10 299 -35 570 -86 72 -13 166 -27 210
-30 44 -3 118 -14 165 -24 172 -38 387 -80 460 -90 41 -5 122 -21 180 -35 263
-62 319 -74 370 -80 30 -4 107 -23 170 -42 63 -19 149 -44 190 -55 130 -34
461 -138 565 -178 55 -21 129 -48 165 -60 205 -69 690 -298 900 -425 413 -251
756 -511 1028 -779 95 -94 182 -172 193 -174 14 -3 35 11 66 45 61 66 259 324
356 463 43 63 121 171 171 240 130 177 355 490 470 655 53 77 134 192 178 255
148 209 601 891 745 1120 198 317 199 319 402 680 207 366 366 679 466 915 37
88 93 221 125 295 131 307 352 935 385 1092 9 40 24 102 34 138 10 36 33 117
51 180 17 63 56 192 85 285 29 94 76 244 104 335 67 217 150 517 168 605 20
104 41 202 79 375 22 101 37 203 44 295 9 138 41 327 81 478 30 117 18 197
-23 150z"/>
<path d="M5782 10893 l-38 -38 36 30 c19 16 39 33 45 37 5 5 6 8 2 8 -4 0 -25
-17 -45 -37z"/>
<path d="M5906 9025 c-10 -7 -15 -18 -11 -24 3 -6 0 -9 -8 -5 -9 3 -35 -15
-66 -46 -28 -28 -51 -49 -51 -46 0 2 -13 -8 -28 -22 -15 -15 -72 -66 -127
-114 -55 -47 -125 -113 -155 -144 -51 -54 -49 -53 20 11 129 119 222 200 300
260 41 32 74 62 72 67 -1 5 2 7 8 3 13 -8 101 55 94 66 -8 13 -26 10 -48 -6z"/>
<path d="M5240 8405 c-24 -25 -42 -45 -39 -45 3 0 25 20 49 45 24 25 42 45 39
45 -3 0 -25 -20 -49 -45z"/>
<path d="M5102 8255 c-11 -13 -23 -21 -27 -17 -5 4 -5 1 -1 -5 10 -18 12 -17
36 17 26 36 19 40 -8 5z"/>
<path d="M5034 8168 l-19 -23 23 19 c12 11 22 21 22 23 0 8 -8 2 -26 -19z"/>
<path d="M4997 8120 c-8 -11 -17 -17 -22 -12 -5 4 -5 1 -1 -6 5 -8 -1 -21 -15
-33 -12 -10 -19 -19 -15 -19 3 0 -7 -24 -24 -53 -48 -85 -35 -78 18 9 26 43
56 91 66 107 21 31 15 38 -7 7z"/>
<path d="M4793 8065 c0 -33 2 -45 4 -27 2 18 2 45 0 60 -2 15 -4 0 -4 -33z"/>
<path d="M890 7335 c0 -15 37 -74 99 -159 37 -50 92 -127 121 -171 68 -103
439 -599 516 -690 33 -38 139 -167 235 -286 245 -298 424 -489 894 -948 340
-332 469 -451 634 -584 69 -56 190 -155 269 -220 144 -120 536 -418 647 -493
33 -23 121 -75 195 -116 142 -79 944 -482 1115 -560 55 -26 143 -66 195 -91
103 -48 294 -133 485 -217 66 -29 165 -72 219 -97 54 -24 185 -77 290 -119
105 -41 238 -94 296 -119 115 -48 248 -97 410 -152 58 -19 134 -47 170 -60 85
-33 413 -148 515 -180 44 -14 141 -47 215 -73 74 -26 151 -51 170 -55 19 -4
84 -25 143 -46 60 -22 145 -48 190 -60 45 -11 150 -42 232 -69 83 -26 175 -53
205 -59 30 -5 109 -28 175 -51 66 -22 157 -47 203 -56 46 -9 101 -22 123 -29
69 -25 272 -77 349 -90 41 -8 156 -34 255 -59 99 -26 205 -49 235 -52 30 -3
102 -16 160 -29 191 -44 364 -75 470 -85 58 -6 170 -21 250 -34 423 -71 485
-77 820 -86 173 -4 386 -14 473 -21 125 -9 196 -9 350 0 105 7 311 17 457 21
257 8 274 10 540 58 151 28 309 55 350 62 41 6 154 32 250 57 96 25 209 53
250 63 82 20 427 138 635 218 256 97 787 362 1053 524 428 261 1072 741 1072
799 0 10 -2 19 -5 19 -3 0 -45 -20 -93 -44 -104 -52 -271 -124 -362 -156 -36
-12 -126 -44 -200 -70 -167 -59 -367 -122 -525 -165 -66 -18 -185 -51 -264
-74 -80 -22 -151 -41 -160 -41 -8 0 -96 -20 -195 -44 -185 -45 -234 -55 -391
-80 -49 -8 -198 -34 -330 -58 l-240 -43 -845 0 -845 0 -215 33 c-118 18 -253
39 -300 47 -47 8 -134 19 -195 25 -60 6 -225 33 -365 60 -140 27 -289 54 -330
60 -41 6 -160 31 -265 55 -104 24 -210 47 -235 51 -51 7 -455 103 -690 164
-85 22 -186 47 -225 56 -38 9 -149 38 -245 65 -96 26 -197 53 -225 60 -27 6
-95 25 -150 41 -352 103 -559 163 -618 179 -135 37 -760 240 -1147 374 -185
64 -585 212 -832 308 -90 35 -230 90 -313 122 -82 32 -178 71 -213 87 -35 15
-149 64 -255 107 -211 86 -397 169 -582 256 -66 31 -140 66 -165 77 -111 50
-760 375 -895 448 -82 45 -218 126 -301 180 -101 67 -270 160 -510 283 -395
202 -512 266 -964 525 -351 201 -471 275 -770 471 -118 77 -269 175 -335 217
-227 145 -829 584 -989 722 -65 57 -146 110 -146 97z"/>
</g>
</svg>
